<svg width="591" height="150" viewBox="0 0 591 150" fill="none" xmlns="http://www.w3.org/2000/svg">
<path d="M98.033 77.02C98.1765 65.8398 104.157 55.2609 113.645 49.405C107.66 40.8232 97.6343 35.3821 87.2037 35.0544C76.0786 33.8821 65.2934 41.7375 59.6243 41.7375C53.8454 41.7375 45.1169 35.1708 35.7177 35.365C23.4663 35.7623 12.045 42.755 6.0844 53.5078C-6.72846 75.7778 2.82878 108.507 15.1024 126.509C21.2432 135.324 28.42 145.17 37.8107 144.821C47 144.438 50.4321 138.938 61.5244 138.938C72.5138 138.938 75.7337 144.821 85.315 144.599C95.1756 144.438 101.388 135.745 107.314 126.847C111.726 120.566 115.121 113.624 117.373 106.278C105.785 101.358 98.0466 89.651 98.033 77.02Z" fill="#EEFF30"/>
<path d="M79.9356 23.2158C85.312 16.7364 87.9608 8.4083 87.3193 0C79.1054 0.866085 71.518 4.80714 66.0689 11.0379C60.7405 17.1257 57.9676 25.3073 58.4918 33.3942C66.7087 33.4792 74.7866 29.6449 79.9356 23.2158Z" fill="#EEFF30"/>
<path d="M425.795 65.4728V79.0208H417.336V87.9055H425.795V118.094C425.795 128.402 430.44 132.525 442.126 132.525C444.18 132.525 446.136 132.28 447.847 131.985V123.199C446.38 123.346 445.451 123.444 443.838 123.444C438.606 123.444 436.308 120.99 436.308 115.394V87.9055H447.847V79.0208H436.308V65.4728H425.795Z" fill="#EEFF30"/>
<path d="M477.617 133.262C493.166 133.262 502.7 122.806 502.7 105.479C502.7 88.2491 493.117 77.7445 477.617 77.7445C462.068 77.7445 452.484 88.2491 452.484 105.479C452.484 122.806 462.019 133.262 477.617 133.262ZM477.617 123.886C468.473 123.886 463.339 117.161 463.339 105.479C463.339 93.894 468.473 87.1201 477.617 87.1201C486.711 87.1201 491.894 93.894 491.894 105.479C491.894 117.112 486.711 123.886 477.617 123.886Z" fill="#EEFF30"/>
<path d="M510.858 132.231H521.371V100.668C521.371 93.1577 526.994 88.1018 534.964 88.1018C536.822 88.1018 539.951 88.4454 540.831 88.7399V78.3336C539.707 78.039 537.702 77.8918 536.137 77.8918C529.194 77.8918 523.278 81.7205 521.762 86.9728H520.98V78.7753H510.858V132.231Z" fill="#EEFF30"/>
<path d="M566.934 86.7274C574.708 86.7274 579.793 92.176 580.038 100.57H553.145C553.732 92.2251 559.159 86.7274 566.934 86.7274ZM579.989 117.799C578.033 121.972 573.682 124.279 567.325 124.279C558.915 124.279 553.488 118.339 553.145 108.964V108.375H590.746V104.693C590.746 87.9055 581.798 77.7445 566.983 77.7445C551.972 77.7445 542.437 88.5927 542.437 105.675C542.437 122.757 551.776 133.262 567.032 133.262C579.207 133.262 587.715 127.371 590.111 117.799H579.989Z" fill="#EEFF30"/>
<path d="M356.855 112.491C357.666 125.617 368.562 134.011 384.779 134.011C402.111 134.011 412.957 125.21 412.957 111.168C412.957 100.127 406.774 94.0222 391.773 90.5117L383.715 88.5275C374.187 86.2889 370.336 83.2872 370.336 78.0468C370.336 71.4328 376.316 67.1083 385.286 67.1083C393.8 67.1083 399.679 71.3311 400.743 78.0977H411.791C411.132 65.7346 400.287 57.0347 385.438 57.0347C369.474 57.0347 358.831 65.7346 358.831 78.81C358.831 89.5959 364.862 96.0064 378.089 99.1099L387.516 101.399C397.196 103.689 401.453 107.047 401.453 112.643C401.453 119.155 394.763 123.887 385.641 123.887C375.86 123.887 369.069 119.461 368.106 112.491H356.855Z" fill="#EEFF30"/>
<path d="M247.955 77.8918C240.718 77.8918 234.46 81.5242 231.233 87.6109H230.45V78.7753H220.329V150H230.842V124.131H231.673C234.46 129.776 240.474 133.114 248.053 133.114C261.499 133.114 270.056 122.462 270.056 105.479C270.056 88.4945 261.499 77.8918 247.955 77.8918ZM244.972 123.641C236.171 123.641 230.646 116.67 230.646 105.528C230.646 94.3358 236.171 87.3655 245.021 87.3655C253.92 87.3655 259.25 94.1886 259.25 105.479C259.25 116.818 253.92 123.641 244.972 123.641Z" fill="#EEFF30"/>
<path d="M306.841 77.8918C299.605 77.8918 293.346 81.5242 290.119 87.6109H289.337V78.7753H279.215V150H289.728V124.131H290.559C293.346 129.776 299.36 133.114 306.939 133.114C320.385 133.114 328.942 122.462 328.942 105.479C328.942 88.4945 320.385 77.8918 306.841 77.8918ZM303.859 123.641C295.057 123.641 289.532 116.67 289.532 105.528C289.532 94.3358 295.057 87.3655 303.908 87.3655C312.807 87.3655 318.136 94.1886 318.136 105.479C318.136 116.818 312.807 123.641 303.859 123.641Z" fill="#EEFF30"/>
<path d="M201.467 132.231H213.529L187.125 58.8154H174.912L148.508 132.231H160.164L166.904 112.745H194.778L201.467 132.231ZM180.436 72.1451H181.297L191.889 103.18H169.793L180.436 72.1451Z" fill="#EEFF30"/>
<path d="M148.215 7.03281V36.052H158.652C167.265 36.052 172.253 30.7228 172.253 21.4519C172.253 12.3218 167.225 7.03281 158.652 7.03281H148.215ZM152.702 11.1353H158.151C164.14 11.1353 167.686 14.9563 167.686 21.5123C167.686 28.1688 164.201 31.9495 158.151 31.9495H152.702V11.1353Z" fill="#EEFF30"/>
<path d="M187.53 36.4744C193.9 36.4744 197.806 32.1909 197.806 25.0919C197.806 18.0332 193.88 13.7296 187.53 13.7296C181.16 13.7296 177.233 18.0332 177.233 25.0919C177.233 32.1909 181.14 36.4744 187.53 36.4744ZM187.53 32.6333C183.784 32.6333 181.681 29.8782 181.681 25.0919C181.681 20.3459 183.784 17.5706 187.53 17.5706C191.256 17.5706 193.379 20.3459 193.379 25.0919C193.379 29.8581 191.256 32.6333 187.53 32.6333Z" fill="#EEFF30"/>
<path d="M231.072 14.1519H226.765L222.879 30.8636H222.538L218.051 14.1519H213.924L209.437 30.8636H209.117L205.21 14.1519H200.843L206.853 36.052H211.28L215.767 19.9235H216.108L220.615 36.052H225.082L231.072 14.1519Z" fill="#EEFF30"/>
<path d="M236.032 36.052H240.339V23.2418C240.339 19.823 242.362 17.6913 245.547 17.6913C248.732 17.6913 250.255 19.4409 250.255 22.9602V36.052H254.562V21.8742C254.562 16.6657 251.877 13.7296 247.009 13.7296C243.724 13.7296 241.561 15.1976 240.499 17.631H240.178V14.1519H236.032V36.052Z" fill="#EEFF30"/>
<path d="M261.344 36.052H265.651V5.60498H261.344V36.052Z" fill="#EEFF30"/>
<path d="M281.849 36.4744C288.22 36.4744 292.126 32.1909 292.126 25.0919C292.126 18.0332 288.2 13.7296 281.849 13.7296C275.479 13.7296 271.553 18.0332 271.553 25.0919C271.553 32.1909 275.459 36.4744 281.849 36.4744ZM281.849 32.6333C278.103 32.6333 276 29.8782 276 25.0919C276 20.3459 278.103 17.5706 281.849 17.5706C285.575 17.5706 287.699 20.3459 287.699 25.0919C287.699 29.8581 285.575 32.6333 281.849 32.6333Z" fill="#EEFF30"/>
<path d="M304.958 32.7741C302.615 32.7741 300.912 31.6278 300.912 29.6569C300.912 27.7264 302.274 26.7007 305.279 26.4996L310.607 26.1577V27.9878C310.607 30.7027 308.204 32.7741 304.958 32.7741ZM303.857 36.414C306.721 36.414 309.105 35.1672 310.407 32.9752H310.748V36.052H314.894V21.0899C314.894 16.4646 311.809 13.7296 306.341 13.7296C301.393 13.7296 297.867 16.1428 297.426 19.9034H301.593C302.074 18.3549 303.736 17.4701 306.14 17.4701C309.085 17.4701 310.607 18.7773 310.607 21.0899V22.9803L304.698 23.3222C299.51 23.644 296.585 25.9164 296.585 29.8581C296.585 33.86 299.65 36.414 303.857 36.414Z" fill="#EEFF30"/>
<path d="M329.51 36.414C332.515 36.414 335.059 34.9862 336.361 32.5931H336.701V36.052H340.828V5.60498H336.521V17.631H336.201C335.019 15.2177 332.495 13.7899 329.51 13.7899C324.001 13.7899 320.455 18.1739 320.455 25.0919C320.455 32.03 323.961 36.414 329.51 36.414ZM330.732 17.6712C334.338 17.6712 336.601 20.547 336.601 25.112C336.601 29.6972 334.358 32.5327 330.732 32.5327C327.086 32.5327 324.902 29.7374 324.902 25.0919C324.902 20.4866 327.106 17.6712 330.732 17.6712Z" fill="#EEFF30"/>
<path d="M368.757 36.4744C375.127 36.4744 379.033 32.1909 379.033 25.0919C379.033 18.0332 375.107 13.7296 368.757 13.7296C362.387 13.7296 358.46 18.0332 358.46 25.0919C358.46 32.1909 362.367 36.4744 368.757 36.4744ZM368.757 32.6333C365.011 32.6333 362.907 29.8782 362.907 25.0919C362.907 20.3459 365.011 17.5706 368.757 17.5706C372.483 17.5706 374.606 20.3459 374.606 25.0919C374.606 29.8581 372.483 32.6333 368.757 32.6333Z" fill="#EEFF30"/>
<path d="M384.734 36.052H389.041V23.2418C389.041 19.823 391.065 17.6913 394.25 17.6913C397.435 17.6913 398.957 19.4409 398.957 22.9602V36.052H403.264V21.8742C403.264 16.6657 400.58 13.7296 395.712 13.7296C392.427 13.7296 390.263 15.1976 389.202 17.631H388.881V14.1519H384.734V36.052Z" fill="#EEFF30"/>
<path d="M423.1 8.70197V14.2524H419.634V17.8924H423.1V30.2603C423.1 34.4834 425.003 36.1727 429.791 36.1727C430.632 36.1727 431.433 36.0721 432.135 35.9515V32.3517C431.534 32.4121 431.153 32.4523 430.492 32.4523C428.348 32.4523 427.407 31.4468 427.407 29.1542V17.8924H432.135V14.2524H427.407V8.70197H423.1Z" fill="#EEFF30"/>
<path d="M437.916 36.052H442.223V23.2619C442.223 19.9437 444.186 17.7114 447.712 17.7114C450.756 17.7114 452.379 19.4811 452.379 22.9803V36.052H456.686V21.9145C456.686 16.7059 453.821 13.7497 449.174 13.7497C445.889 13.7497 443.585 15.2177 442.523 17.6712H442.183V5.60498H437.916V36.052Z" fill="#EEFF30"/>
<path d="M472.223 17.4098C475.408 17.4098 477.491 19.642 477.591 23.0809H466.574C466.814 19.6621 469.038 17.4098 472.223 17.4098ZM477.571 30.1396C476.77 31.849 474.987 32.7942 472.383 32.7942C468.938 32.7942 466.714 30.3608 466.574 26.5197V26.2784H481.979V24.7701C481.979 17.8924 478.313 13.7296 472.243 13.7296C466.093 13.7296 462.187 18.1739 462.187 25.1723C462.187 32.1707 466.013 36.4744 472.263 36.4744C477.251 36.4744 480.737 34.0611 481.718 30.1396H477.571Z" fill="#EEFF30"/>
</svg>
