<svg width="634" height="151" viewBox="0 0 634 151" fill="none" xmlns="http://www.w3.org/2000/svg">
<g filter="url(#filter0_ii_205_5834)">
<path d="M2.68968 3.31587C0.999194 5.1121 -2.48198e-06 7.89976 -2.48198e-06 11.5097V140.488C-2.48198e-06 144.104 0.999194 146.886 2.68968 148.682L3.11956 149.102L75.0903 76.8505V75.999V75.1476L3.11956 2.89014L2.68968 3.31587Z" fill="url(#paint0_linear_205_5834)"/>
<path d="M99.0723 100.941L75.0859 76.8493V75.9978V75.1464L99.0781 51.0605L99.6184 51.3696L128.043 67.5824C136.159 72.2129 136.159 79.7886 128.043 84.4249L99.6184 100.638L99.0723 100.941Z" fill="url(#paint1_linear_205_5834)"/>
<g filter="url(#filter1_i_205_5834)">
<path d="M99.6244 100.632L75.0862 75.9976L2.69141 148.681C5.36366 151.527 9.78449 151.877 14.763 149.042L99.6244 100.632Z" fill="url(#paint2_linear_205_5834)"/>
</g>
<path d="M99.6244 51.3649L14.763 2.95996C9.78449 0.119819 5.36366 0.475568 2.69141 3.32154L75.092 76.0047L99.6244 51.3649Z" fill="url(#paint3_linear_205_5834)"/>
</g>
<path d="M316.671 83.0554C303.766 83.0554 293.248 92.866 293.248 106.378C293.248 119.808 303.766 129.701 316.671 129.701C329.581 129.701 340.099 119.808 340.099 106.378C340.093 92.866 329.575 83.0554 316.671 83.0554ZM316.671 120.521C309.598 120.521 303.503 114.692 303.503 106.384C303.503 97.9879 309.604 92.2463 316.671 92.2463C323.743 92.2463 329.839 97.9879 329.839 106.384C329.839 114.686 323.743 120.521 316.671 120.521ZM265.568 83.0554C252.663 83.0554 242.146 92.866 242.146 106.378C242.146 119.808 252.663 129.701 265.568 129.701C278.478 129.701 288.996 119.808 288.996 106.378C288.996 92.866 278.478 83.0554 265.568 83.0554ZM265.568 120.521C258.496 120.521 252.4 114.692 252.4 106.384C252.4 97.9879 258.501 92.2463 265.568 92.2463C272.64 92.2463 278.736 97.9879 278.736 106.384C278.741 114.686 272.64 120.521 265.568 120.521ZM204.787 90.2173V100.11H228.478C227.771 105.676 225.916 109.74 223.085 112.564C219.639 116.008 214.246 119.808 204.787 119.808C190.204 119.808 178.802 108.056 178.802 93.4802C178.802 78.9041 190.204 67.1522 204.787 67.1522C212.655 67.1522 218.399 70.2451 222.641 74.2209L229.625 67.2399C223.7 61.586 215.837 57.2593 204.787 57.2593C184.81 57.2593 168.016 73.5134 168.016 93.4802C168.016 113.447 184.81 129.701 204.787 129.701C215.568 129.701 223.705 126.164 230.064 119.539C236.604 113.003 238.64 103.812 238.64 96.3921C238.64 94.0999 238.464 91.9776 238.107 90.2118L204.787 90.2173ZM453.376 97.9002C451.433 92.6905 445.508 83.0554 433.399 83.0554C421.378 83.0554 411.386 92.5095 411.386 106.378C411.386 119.452 421.29 129.701 434.546 129.701C445.239 129.701 451.428 123.164 453.996 119.364L446.04 114.061C443.39 117.949 439.763 120.51 434.546 120.51C429.333 120.51 425.619 118.125 423.232 113.441L454.435 100.543L453.376 97.9002ZM421.553 105.676C421.29 96.6608 428.538 92.0708 433.755 92.0708C437.821 92.0708 441.267 94.1053 442.419 97.0173L421.553 105.676ZM396.188 128.292H406.437V59.738H396.188V128.292ZM379.388 88.2705H379.037C376.738 85.5286 372.316 83.0554 366.753 83.0554C355.083 83.0554 344.389 93.3047 344.389 106.471C344.389 119.545 355.083 129.707 366.753 129.707C372.322 129.707 376.738 127.233 379.037 124.409H379.388V127.765C379.388 136.688 374.615 141.458 366.928 141.458C360.651 141.458 356.761 136.956 355.17 133.156L346.244 136.868C348.806 143.049 355.609 150.649 366.928 150.649C378.949 150.649 389.116 143.581 389.116 126.35V84.4757H379.394L379.388 88.2705ZM367.636 120.521C360.564 120.521 354.644 114.599 354.644 106.471C354.644 98.2511 360.564 92.2463 367.636 92.2463C374.615 92.2463 380.096 98.2511 380.096 106.471C380.096 114.599 374.615 120.521 367.636 120.521ZM501.406 59.738H476.875V128.292H487.108V102.32H501.4C512.747 102.32 523.906 94.1108 523.906 81.0318C523.906 67.9528 512.752 59.738 501.406 59.738ZM501.669 92.7782H487.108V69.2799H501.669C509.323 69.2799 513.668 75.6138 513.668 81.0318C513.668 86.3402 509.323 92.7782 501.669 92.7782ZM564.941 82.9347C557.529 82.9347 549.853 86.1976 546.676 93.4308L555.762 97.2202C557.704 93.4308 561.325 92.1915 565.117 92.1915C570.411 92.1915 575.794 95.3666 575.881 101.01V101.717C574.027 100.659 570.055 99.0737 565.204 99.0737C555.411 99.0737 545.436 104.453 545.436 114.505C545.436 123.68 553.468 129.586 562.466 129.586C569.347 129.586 573.144 126.499 575.525 122.879H575.876V128.171H585.763V101.887C585.768 89.7237 576.671 82.9347 564.941 82.9347ZM563.701 120.505C560.354 120.505 555.674 118.827 555.674 114.681C555.674 109.389 561.501 107.36 566.532 107.36C571.026 107.36 573.149 108.33 575.881 109.652C575.086 116.008 569.616 120.505 563.701 120.505ZM621.766 84.4318L610.03 114.154H609.679L597.499 84.4318H586.471L604.736 125.972L594.322 149.081H604.999L633.151 84.4318H621.766ZM529.558 128.292H539.79V59.738H529.558V128.292Z" fill="#EEFF30"/>
<path d="M203.51 19.1886C203.51 23.7008 202.15 27.2923 199.426 29.9738C196.334 33.1614 192.3 34.7552 187.344 34.7552C182.597 34.7552 178.557 33.1399 175.241 29.9092C171.919 26.6731 170.258 22.667 170.258 17.8856C170.258 13.0987 171.919 9.09266 175.241 5.86196C178.557 2.62587 182.597 1.01052 187.344 1.01052C189.701 1.01052 191.954 1.46282 194.092 2.36203C196.236 3.26663 197.951 4.46737 199.234 5.96965L196.345 8.81267C194.169 6.25503 191.171 4.9789 187.339 4.9789C183.874 4.9789 180.881 6.17426 178.354 8.56498C175.827 10.9557 174.566 14.0626 174.566 17.8802C174.566 21.6978 175.827 24.8046 178.354 27.1954C180.881 29.5861 183.874 30.7815 187.339 30.7815C191.012 30.7815 194.076 29.5807 196.526 27.1738C198.116 25.6069 199.037 23.4262 199.284 20.6317H187.339V16.7494H203.274C203.439 17.5948 203.51 18.4079 203.51 19.1886Z" fill="#EEFF30"/>
<path d="M228.781 5.69534H213.805V15.9367H227.312V19.8189H213.805V30.0602H228.781V34.034H209.579V1.72696H228.781V5.69534Z" fill="#EEFF30"/>
<path d="M246.602 34.034H242.375V5.69534H233.188V1.72696H255.789V5.69534H246.602V34.034Z" fill="#EEFF30"/>
<path d="M272.141 34.034V1.72696H276.367V34.034H272.141Z" fill="#EEFF30"/>
<path d="M295.11 34.034H290.884V5.69534H281.696V1.72696H304.298V5.69534H295.11V34.034Z" fill="#EEFF30"/>
<path d="M347.081 29.861C343.847 33.124 339.829 34.7555 335.021 34.7555C330.214 34.7555 326.196 33.124 322.967 29.861C319.733 26.5979 318.121 22.6026 318.121 17.8804C318.121 13.1582 319.733 9.16291 322.967 5.8999C326.196 2.63689 330.214 1 335.021 1C339.801 1 343.814 2.64227 347.059 5.92144C350.304 9.2006 351.927 13.1851 351.927 17.8804C351.927 22.6026 350.31 26.5979 347.081 29.861ZM326.086 27.1526C328.52 29.5756 331.497 30.7817 335.021 30.7817C338.546 30.7817 341.528 29.5702 343.957 27.1526C346.39 24.7295 347.613 21.6388 347.613 17.8804C347.613 14.122 346.39 11.0313 343.957 8.60831C341.528 6.18528 338.546 4.97915 335.021 4.97915C331.497 4.97915 328.52 6.19067 326.086 8.60831C323.658 11.0313 322.435 14.122 322.435 17.8804C322.435 21.6388 323.658 24.7295 326.086 27.1526Z" fill="#EEFF30"/>
<path d="M357.858 34.034V1.72696H363L378.985 26.8565H379.166L378.985 20.632V1.72696H383.211V34.034H378.799L362.074 7.68223H361.893L362.074 13.9067V34.034H357.858Z" fill="#EEFF30"/>
<path d="M203.51 19.1886C203.51 23.7008 202.15 27.2923 199.426 29.9738C196.334 33.1614 192.3 34.7552 187.344 34.7552C182.597 34.7552 178.557 33.1399 175.241 29.9092C171.919 26.6731 170.258 22.667 170.258 17.8856C170.258 13.0987 171.919 9.09266 175.241 5.86196C178.557 2.62587 182.597 1.01052 187.344 1.01052C189.701 1.01052 191.954 1.46282 194.092 2.36203C196.236 3.26663 197.951 4.46737 199.234 5.96965L196.345 8.81267C194.169 6.25503 191.171 4.9789 187.339 4.9789C183.874 4.9789 180.881 6.17426 178.354 8.56498C175.827 10.9557 174.566 14.0626 174.566 17.8802C174.566 21.6978 175.827 24.8046 178.354 27.1954C180.881 29.5861 183.874 30.7815 187.339 30.7815C191.012 30.7815 194.076 29.5807 196.526 27.1738C198.116 25.6069 199.037 23.4262 199.284 20.6317H187.339V16.7494H203.274C203.439 17.5948 203.51 18.4079 203.51 19.1886Z" stroke="white" stroke-width="0.204511" stroke-miterlimit="10"/>
<path d="M228.781 5.69534H213.805V15.9367H227.312V19.8189H213.805V30.0602H228.781V34.034H209.579V1.72696H228.781V5.69534Z" stroke="white" stroke-width="0.204511" stroke-miterlimit="10"/>
<path d="M246.602 34.034H242.375V5.69534H233.188V1.72696H255.789V5.69534H246.602V34.034Z" stroke="white" stroke-width="0.204511" stroke-miterlimit="10"/>
<path d="M272.141 34.034V1.72696H276.367V34.034H272.141Z" stroke="white" stroke-width="0.204511" stroke-miterlimit="10"/>
<path d="M295.11 34.034H290.884V5.69534H281.696V1.72696H304.298V5.69534H295.11V34.034Z" stroke="white" stroke-width="0.204511" stroke-miterlimit="10"/>
<path d="M347.081 29.861C343.847 33.124 339.829 34.7555 335.021 34.7555C330.214 34.7555 326.196 33.124 322.967 29.861C319.733 26.5979 318.121 22.6026 318.121 17.8804C318.121 13.1582 319.733 9.16291 322.967 5.8999C326.196 2.63689 330.214 1 335.021 1C339.801 1 343.814 2.64227 347.059 5.92144C350.304 9.2006 351.927 13.1851 351.927 17.8804C351.927 22.6026 350.31 26.5979 347.081 29.861ZM326.086 27.1526C328.52 29.5756 331.497 30.7817 335.021 30.7817C338.546 30.7817 341.528 29.5702 343.957 27.1526C346.39 24.7295 347.613 21.6388 347.613 17.8804C347.613 14.122 346.39 11.0313 343.957 8.60831C341.528 6.18528 338.546 4.97915 335.021 4.97915C331.497 4.97915 328.52 6.19067 326.086 8.60831C323.658 11.0313 322.435 14.122 322.435 17.8804C322.435 21.6388 323.658 24.7295 326.086 27.1526Z" stroke="white" stroke-width="0.204511" stroke-miterlimit="10"/>
<path d="M357.858 34.034V1.72696H363L378.985 26.8565H379.166L378.985 20.632V1.72696H383.211V34.034H378.799L362.074 7.68223H361.893L362.074 13.9067V34.034H357.858Z" stroke="white" stroke-width="0.204511" stroke-miterlimit="10"/>
<defs>
<filter id="filter0_ii_205_5834" x="0" y="1" width="134.129" height="150" filterUnits="userSpaceOnUse" color-interpolation-filters="sRGB">
<feFlood flood-opacity="0" result="BackgroundImageFix"/>
<feBlend mode="normal" in="SourceGraphic" in2="BackgroundImageFix" result="shape"/>
<feColorMatrix in="SourceAlpha" type="matrix" values="0 0 0 0 0 0 0 0 0 0 0 0 0 0 0 0 0 0 127 0" result="hardAlpha"/>
<feOffset dy="-0.795"/>
<feComposite in2="hardAlpha" operator="arithmetic" k2="-1" k3="1"/>
<feColorMatrix type="matrix" values="0 0 0 0 0 0 0 0 0 0 0 0 0 0 0 0 0 0 0.12 0"/>
<feBlend mode="normal" in2="shape" result="effect1_innerShadow_205_5834"/>
<feColorMatrix in="SourceAlpha" type="matrix" values="0 0 0 0 0 0 0 0 0 0 0 0 0 0 0 0 0 0 127 0" result="hardAlpha"/>
<feOffset dy="0.795"/>
<feComposite in2="hardAlpha" operator="arithmetic" k2="-1" k3="1"/>
<feColorMatrix type="matrix" values="0 0 0 0 1 0 0 0 0 1 0 0 0 0 1 0 0 0 0.25 0"/>
<feBlend mode="normal" in2="effect1_innerShadow_205_5834" result="effect2_innerShadow_205_5834"/>
</filter>
<filter id="filter1_i_205_5834" x="2.69141" y="75.9976" width="96.9336" height="75.0024" filterUnits="userSpaceOnUse" color-interpolation-filters="sRGB">
<feFlood flood-opacity="0" result="BackgroundImageFix"/>
<feBlend mode="normal" in="SourceGraphic" in2="BackgroundImageFix" result="shape"/>
<feColorMatrix in="SourceAlpha" type="matrix" values="0 0 0 0 0 0 0 0 0 0 0 0 0 0 0 0 0 0 127 0" result="hardAlpha"/>
<feOffset dy="-0.795"/>
<feComposite in2="hardAlpha" operator="arithmetic" k2="-1" k3="1"/>
<feColorMatrix type="matrix" values="0 0 0 0 0 0 0 0 0 0 0 0 0 0 0 0 0 0 0.08 0"/>
<feBlend mode="normal" in2="shape" result="effect1_innerShadow_205_5834"/>
</filter>
<linearGradient id="paint0_linear_205_5834" x1="68.7106" y1="10.145" x2="-29.1599" y2="107.635" gradientUnits="userSpaceOnUse">
<stop stop-color="#00A0FF"/>
<stop offset="0.0066" stop-color="#00A1FF"/>
<stop offset="0.2601" stop-color="#00BEFF"/>
<stop offset="0.5122" stop-color="#00D2FF"/>
<stop offset="0.7604" stop-color="#00DFFF"/>
<stop offset="1" stop-color="#00E3FF"/>
</linearGradient>
<linearGradient id="paint1_linear_205_5834" x1="138.607" y1="75.9978" x2="-1.95275" y2="75.9978" gradientUnits="userSpaceOnUse">
<stop stop-color="#FFE000"/>
<stop offset="0.4087" stop-color="#FFBD00"/>
<stop offset="0.7754" stop-color="#FFA500"/>
<stop offset="1" stop-color="#FF9C00"/>
</linearGradient>
<linearGradient id="paint2_linear_205_5834" x1="86.2986" y1="89.3754" x2="-46.4261" y2="221.584" gradientUnits="userSpaceOnUse">
<stop stop-color="#FF3A44"/>
<stop offset="1" stop-color="#C31162"/>
</linearGradient>
<linearGradient id="paint3_linear_205_5834" x1="-15.5415" y1="-39.6142" x2="43.7238" y2="19.4206" gradientUnits="userSpaceOnUse">
<stop stop-color="#32A071"/>
<stop offset="0.0685" stop-color="#2DA771"/>
<stop offset="0.4762" stop-color="#15CF74"/>
<stop offset="0.8009" stop-color="#06E775"/>
<stop offset="1" stop-color="#00F076"/>
</linearGradient>
</defs>
</svg>
