<svg width="841" height="253" viewBox="0 0 841 253" fill="none" xmlns="http://www.w3.org/2000/svg">
<path d="M114.783 157.2C114.783 180.8 96.3828 200.4 63.5828 200.4C33.3828 200.4 9.78281 185.4 8.78281 157H45.1828C46.1828 167.8 52.9828 173 62.5828 173C72.5828 173 78.9828 168 78.9828 159.8C78.9828 133.8 8.78281 147.8 9.18281 98C9.18281 71.4 30.9828 56.6 60.3828 56.6C90.9828 56.6 111.583 71.8 112.983 98.6H75.9828C75.3828 89.6 68.9828 84.2 59.7828 84C51.5828 83.8 45.3828 88 45.3828 96.8C45.3828 121.2 114.783 110.2 114.783 157.2ZM135.83 199V87.4H170.03V199H135.83ZM153.03 75.8C140.83 75.8 132.63 67.6 132.63 57.4C132.63 47 140.83 38.8 153.03 38.8C165.03 38.8 173.23 47 173.23 57.4C173.23 67.6 165.03 75.8 153.03 75.8ZM348.614 199V138.4C348.614 123.8 340.214 115.8 327.214 115.8C314.214 115.8 305.814 123.8 305.814 138.4V199H271.814V138.4C271.814 123.8 263.414 115.8 250.414 115.8C237.414 115.8 229.014 123.8 229.014 138.4V199H194.814V87.4H229.014V101.4C235.614 92.4 247.014 86.2 261.614 86.2C278.414 86.2 292.014 93.6 299.614 107C307.014 95.2 321.014 86.2 337.214 86.2C364.814 86.2 382.614 103.8 382.614 133.8V199H348.614ZM440.733 103.2C446.933 93.4 458.733 85.8 475.133 85.8C502.533 85.8 524.333 107.8 524.333 143C524.333 178.2 502.533 200.6 475.133 200.6C458.733 200.6 446.933 192.8 440.733 183.4V252.2H406.533V87.4H440.733V103.2ZM489.533 143C489.533 125.2 477.933 115.6 464.933 115.6C452.133 115.6 440.533 125.4 440.533 143.2C440.533 161 452.133 170.8 464.933 170.8C477.933 170.8 489.533 160.8 489.533 143ZM542.275 199V51H576.475V199H542.275ZM601.259 199V87.4H635.459V199H601.259ZM618.459 75.8C606.259 75.8 598.059 67.6 598.059 57.4C598.059 47 606.259 38.8 618.459 38.8C630.459 38.8 638.659 47 638.659 57.4C638.659 67.6 630.459 75.8 618.459 75.8ZM750.844 166.6C750.844 186 733.644 200.6 705.644 200.6C675.844 200.6 655.844 184 654.244 162.4H688.044C688.844 170.2 695.844 175.4 705.244 175.4C714.044 175.4 718.644 171.4 718.644 166.4C718.644 148.4 657.844 161.4 657.844 120.4C657.844 101.4 674.044 85.8 703.244 85.8C732.044 85.8 748.044 101.8 750.244 123.8H718.644C717.644 116.2 711.844 111.2 702.244 111.2C694.244 111.2 689.844 114.4 689.844 119.8C689.844 137.6 750.244 125 750.844 166.6ZM777.167 160.2V115.8H763.567V87.4H777.167V60.2H811.367V87.4H833.767V115.8H811.367V160.6C811.367 167.2 814.167 170 821.767 170H833.967V199H816.567C793.367 199 777.167 189.2 777.167 160.2Z" fill="black"/>
<path d="M8.78281 157V154H5.67532L5.78467 157.106L8.78281 157ZM45.1828 157L48.17 156.723L47.9179 154H45.1828V157ZM9.18281 98L12.1827 98.0241L12.1828 98.012V98H9.18281ZM112.983 98.6V101.6H116.144L115.979 98.4435L112.983 98.6ZM75.9828 98.6L72.9895 98.7995L73.1762 101.6H75.9828V98.6ZM59.7828 84L59.7097 86.9991L59.7176 86.9993L59.7828 84ZM111.783 157.2C111.783 168.19 107.514 178.167 99.4731 185.423C91.422 192.687 79.3834 197.4 63.5828 197.4V203.4C80.5823 203.4 94.1436 198.313 103.493 189.877C112.852 181.433 117.783 169.81 117.783 157.2H111.783ZM63.5828 197.4C48.9413 197.4 36.1747 193.76 27.0249 186.944C17.9584 180.19 12.249 170.188 11.781 156.894L5.78467 157.106C6.31658 172.212 12.9072 183.91 23.4407 191.756C33.8909 199.54 48.0243 203.4 63.5828 203.4V197.4ZM8.78281 160H45.1828V154H8.78281V160ZM42.1956 157.277C42.7504 163.268 44.9592 168.046 48.681 171.307C52.3836 174.55 57.2503 176 62.5828 176V170C58.3153 170 54.982 168.85 52.6346 166.793C50.3064 164.754 48.6152 161.532 48.17 156.723L42.1956 157.277ZM62.5828 176C68.0472 176 72.8758 174.636 76.4044 171.82C80.0095 168.942 81.9828 164.757 81.9828 159.8H75.9828C75.9828 163.043 74.7561 165.458 72.6612 167.13C70.4899 168.864 67.1184 170 62.5828 170V176ZM81.9828 159.8C81.9828 151.508 76.1987 146.74 69.3071 143.468C65.8309 141.818 61.8384 140.427 57.7132 139.096C53.514 137.741 49.2549 136.472 44.9022 134.986C36.226 132.024 28.0039 128.457 21.9685 122.817C16.0707 117.307 12.0893 109.654 12.1827 98.0241L6.18291 97.9759C6.07632 111.246 10.7199 120.518 17.8721 127.201C24.8867 133.756 34.1396 137.651 42.9635 140.664C47.3607 142.165 51.8579 143.512 55.8712 144.806C59.9585 146.125 63.6347 147.417 66.7336 148.888C72.9919 151.86 75.9828 155.092 75.9828 159.8H81.9828ZM12.1828 98C12.1828 85.6164 17.2121 76.1504 25.5879 69.7021C34.0503 63.1872 46.1466 59.6 60.3828 59.6V53.6C45.219 53.6 31.7153 57.4128 21.9277 64.9479C12.0536 72.5496 6.18281 83.7836 6.18281 98H12.1828ZM60.3828 59.6C75.2164 59.6 87.3035 63.2857 95.7856 69.9139C104.201 76.4898 109.329 86.1581 109.987 98.7565L115.979 98.4435C115.237 84.2419 109.365 72.9102 99.48 65.1861C89.6622 57.5143 76.1492 53.6 60.3828 53.6V59.6ZM112.983 95.6H75.9828V101.6H112.983V95.6ZM78.9762 98.4004C78.6295 93.2004 76.5754 88.8325 73.096 85.7534C69.6409 82.6958 65.0145 81.113 59.848 81.0007L59.7176 86.9993C63.7511 87.087 66.9247 88.3042 69.1197 90.2466C71.2902 92.1674 72.7361 94.9995 72.9895 98.7995L78.9762 98.4004ZM59.856 81.0009C55.2639 80.8889 50.885 81.9988 47.5983 84.7112C44.2352 87.4865 42.3828 91.6393 42.3828 96.8H48.3828C48.3828 93.1607 49.6304 90.8135 51.4173 89.3388C53.2806 87.8011 56.1017 86.9111 59.7097 86.9991L59.856 81.0009ZM42.3828 96.8C42.3828 104.735 48.1858 109.378 54.9245 112.625C61.6148 115.848 70.7358 118.383 79.0769 121.351C87.6848 124.415 95.8745 128.047 101.913 133.578C107.817 138.986 111.783 146.316 111.783 157.2H117.783C117.783 144.584 113.073 135.664 105.965 129.153C98.9912 122.765 89.8309 118.81 81.0887 115.699C72.0798 112.492 63.8508 110.265 57.5286 107.219C51.2548 104.197 48.3828 101.065 48.3828 96.8H42.3828ZM135.83 199H132.83V202H135.83V199ZM135.83 87.4V84.4H132.83V87.4H135.83ZM170.03 87.4H173.03V84.4H170.03V87.4ZM170.03 199V202H173.03V199H170.03ZM138.83 199V87.4H132.83V199H138.83ZM135.83 90.4H170.03V84.4H135.83V90.4ZM167.03 87.4V199H173.03V87.4H167.03ZM170.03 196H135.83V202H170.03V196ZM153.03 72.8C142.278 72.8 135.63 65.742 135.63 57.4H129.63C129.63 69.458 139.381 78.8 153.03 78.8V72.8ZM135.63 57.4C135.63 48.8376 142.3 41.8 153.03 41.8V35.8C139.36 35.8 129.63 45.1624 129.63 57.4H135.63ZM153.03 41.8C163.539 41.8 170.23 48.8184 170.23 57.4H176.23C176.23 45.1816 166.52 35.8 153.03 35.8V41.8ZM170.23 57.4C170.23 65.7611 163.561 72.8 153.03 72.8V78.8C166.498 78.8 176.23 69.4389 176.23 57.4H170.23ZM348.614 199H345.614V202H348.614V199ZM305.814 199V202H308.814V199H305.814ZM271.814 199H268.814V202H271.814V199ZM229.014 199V202H232.014V199H229.014ZM194.814 199H191.814V202H194.814V199ZM194.814 87.4V84.4H191.814V87.4H194.814ZM229.014 87.4H232.014V84.4H229.014V87.4ZM229.014 101.4H226.014V110.564L231.433 103.174L229.014 101.4ZM299.614 107L297.005 108.48L299.485 112.853L302.156 108.594L299.614 107ZM382.614 199V202H385.614V199H382.614ZM351.614 199V138.4H345.614V199H351.614ZM351.614 138.4C351.614 130.53 349.34 124.052 344.938 119.532C340.529 115.004 334.335 112.8 327.214 112.8V118.8C333.093 118.8 337.599 120.596 340.64 123.718C343.688 126.848 345.614 131.67 345.614 138.4H351.614ZM327.214 112.8C320.093 112.8 313.899 115.004 309.49 119.532C305.088 124.052 302.814 130.53 302.814 138.4H308.814C308.814 131.67 310.74 126.848 313.788 123.718C316.829 120.596 321.335 118.8 327.214 118.8V112.8ZM302.814 138.4V199H308.814V138.4H302.814ZM305.814 196H271.814V202H305.814V196ZM274.814 199V138.4H268.814V199H274.814ZM274.814 138.4C274.814 130.53 272.54 124.052 268.138 119.532C263.729 115.004 257.535 112.8 250.414 112.8V118.8C256.293 118.8 260.799 120.596 263.84 123.718C266.888 126.848 268.814 131.67 268.814 138.4H274.814ZM250.414 112.8C243.293 112.8 237.099 115.004 232.69 119.532C228.288 124.052 226.014 130.53 226.014 138.4H232.014C232.014 131.67 233.94 126.848 236.988 123.718C240.029 120.596 244.535 118.8 250.414 118.8V112.8ZM226.014 138.4V199H232.014V138.4H226.014ZM229.014 196H194.814V202H229.014V196ZM197.814 199V87.4H191.814V199H197.814ZM194.814 90.4H229.014V84.4H194.814V90.4ZM226.014 87.4V101.4H232.014V87.4H226.014ZM231.433 103.174C237.426 95.0029 247.895 89.2 261.614 89.2V83.2C246.133 83.2 233.803 89.7971 226.595 99.6259L231.433 103.174ZM261.614 89.2C277.463 89.2 289.998 96.1267 297.005 108.48L302.224 105.52C294.03 91.0733 279.365 83.2 261.614 83.2V89.2ZM302.156 108.594C309.052 97.5964 322.129 89.2 337.214 89.2V83.2C319.899 83.2 304.976 92.8036 297.072 105.406L302.156 108.594ZM337.214 89.2C350.364 89.2 360.879 93.3779 368.11 100.838C375.35 108.307 379.614 119.392 379.614 133.8H385.614C385.614 118.208 380.978 105.493 372.418 96.662C363.849 87.8221 351.664 83.2 337.214 83.2V89.2ZM379.614 133.8V199H385.614V133.8H379.614ZM382.614 196H348.614V202H382.614V196ZM440.733 103.2H437.733V113.553L443.268 104.804L440.733 103.2ZM440.733 183.4L443.237 181.748L437.733 173.403V183.4H440.733ZM440.733 252.2V255.2H443.733V252.2H440.733ZM406.533 252.2H403.533V255.2H406.533V252.2ZM406.533 87.4V84.4H403.533V87.4H406.533ZM440.733 87.4H443.733V84.4H440.733V87.4ZM443.268 104.804C448.9 95.9013 459.728 88.8 475.133 88.8V82.8C457.738 82.8 444.965 90.8987 438.198 101.596L443.268 104.804ZM475.133 88.8C500.576 88.8 521.333 109.14 521.333 143H527.333C527.333 106.46 504.49 82.8 475.133 82.8V88.8ZM521.333 143C521.333 176.89 500.549 197.6 475.133 197.6V203.6C504.516 203.6 527.333 179.51 527.333 143H521.333ZM475.133 197.6C459.751 197.6 448.887 190.315 443.237 181.748L438.228 185.052C444.978 195.285 457.715 203.6 475.133 203.6V197.6ZM437.733 183.4V252.2H443.733V183.4H437.733ZM440.733 249.2H406.533V255.2H440.733V249.2ZM409.533 252.2V87.4H403.533V252.2H409.533ZM406.533 90.4H440.733V84.4H406.533V90.4ZM437.733 87.4V103.2H443.733V87.4H437.733ZM492.533 143C492.533 133.426 489.398 125.787 484.252 120.527C479.121 115.282 472.177 112.6 464.933 112.6V118.6C470.688 118.6 476.045 120.718 479.963 124.723C483.867 128.713 486.533 134.774 486.533 143H492.533ZM464.933 112.6C457.758 112.6 450.865 115.353 445.771 120.645C440.666 125.949 437.533 133.627 437.533 143.2H443.533C443.533 134.972 446.2 128.851 450.094 124.805C454.001 120.747 459.307 118.6 464.933 118.6V112.6ZM437.533 143.2C437.533 152.772 440.666 160.451 445.771 165.755C450.865 171.047 457.758 173.8 464.933 173.8V167.8C459.307 167.8 454.001 165.653 450.094 161.595C446.2 157.549 443.533 151.428 443.533 143.2H437.533ZM464.933 173.8C472.214 173.8 479.158 170.992 484.274 165.65C489.401 160.297 492.533 152.571 492.533 143H486.533C486.533 151.229 483.865 157.403 479.941 161.5C476.007 165.608 470.652 167.8 464.933 167.8V173.8ZM542.275 199H539.275V202H542.275V199ZM542.275 51V48H539.275V51H542.275ZM576.475 51H579.475V48H576.475V51ZM576.475 199V202H579.475V199H576.475ZM545.275 199V51H539.275V199H545.275ZM542.275 54H576.475V48H542.275V54ZM573.475 51V199H579.475V51H573.475ZM576.475 196H542.275V202H576.475V196ZM601.259 199H598.259V202H601.259V199ZM601.259 87.4V84.4H598.259V87.4H601.259ZM635.459 87.4H638.459V84.4H635.459V87.4ZM635.459 199V202H638.459V199H635.459ZM604.259 199V87.4H598.259V199H604.259ZM601.259 90.4H635.459V84.4H601.259V90.4ZM632.459 87.4V199H638.459V87.4H632.459ZM635.459 196H601.259V202H635.459V196ZM618.459 72.8C607.708 72.8 601.059 65.742 601.059 57.4H595.059C595.059 69.458 604.811 78.8 618.459 78.8V72.8ZM601.059 57.4C601.059 48.8376 607.73 41.8 618.459 41.8V35.8C604.789 35.8 595.059 45.1624 595.059 57.4H601.059ZM618.459 41.8C628.969 41.8 635.659 48.8184 635.659 57.4H641.659C641.659 45.1816 631.95 35.8 618.459 35.8V41.8ZM635.659 57.4C635.659 65.7611 628.991 72.8 618.459 72.8V78.8C631.928 78.8 641.659 69.4389 641.659 57.4H635.659ZM750.844 166.6H753.844V166.578L753.843 166.557L750.844 166.6ZM654.244 162.4V159.4H651.013L651.252 162.622L654.244 162.4ZM688.044 162.4L691.028 162.094L690.752 159.4H688.044V162.4ZM750.244 123.8V126.8H753.559L753.229 123.501L750.244 123.8ZM718.644 123.8L715.669 124.191L716.013 126.8H718.644V123.8ZM747.844 166.6C747.844 175.333 744.004 182.976 736.9 188.508C729.748 194.079 719.147 197.6 705.644 197.6V203.6C720.141 203.6 732.14 199.821 740.587 193.242C749.084 186.624 753.844 177.267 753.844 166.6H747.844ZM705.644 197.6C676.877 197.6 658.684 181.728 657.236 162.178L651.252 162.622C653.004 186.272 674.81 203.6 705.644 203.6V197.6ZM654.244 165.4H688.044V159.4H654.244V165.4ZM685.059 162.706C686.063 172.492 694.811 178.4 705.244 178.4V172.4C696.877 172.4 691.624 167.908 691.028 162.094L685.059 162.706ZM705.244 178.4C710.06 178.4 714.089 177.31 717 175.207C719.984 173.052 721.644 169.92 721.644 166.4H715.644C715.644 167.88 715.003 169.248 713.487 170.343C711.899 171.49 709.228 172.4 705.244 172.4V178.4ZM721.644 166.4C721.644 163.152 720.213 160.6 718.001 158.674C715.901 156.846 713.09 155.565 710.116 154.546C707.109 153.516 703.651 152.662 700.093 151.825C696.489 150.978 692.765 150.144 689.029 149.13C681.523 147.093 674.459 144.448 669.283 140.064C664.262 135.811 660.844 129.776 660.844 120.4H654.844C654.844 131.524 659.026 139.239 665.405 144.642C671.629 149.914 679.764 152.832 687.458 154.92C691.322 155.969 695.198 156.838 698.719 157.666C702.287 158.505 705.479 159.3 708.171 160.222C710.898 161.157 712.837 162.134 714.061 163.2C715.174 164.169 715.644 165.148 715.644 166.4H721.644ZM660.844 120.4C660.844 111.811 664.481 104.012 671.489 98.3006C678.533 92.56 689.161 88.8 703.244 88.8V82.8C688.127 82.8 676.054 86.8399 667.699 93.6494C659.307 100.488 654.844 109.989 654.844 120.4H660.844ZM703.244 88.8C717.086 88.8 727.544 92.6374 734.766 98.8278C741.98 105.011 746.225 113.761 747.259 124.099L753.229 123.501C752.063 111.839 747.208 101.589 738.671 94.2722C730.143 86.9626 718.202 82.8 703.244 82.8V88.8ZM750.244 120.8H718.644V126.8H750.244V120.8ZM721.618 123.409C721.027 118.917 718.979 115.032 715.532 112.299C712.112 109.587 707.557 108.2 702.244 108.2V114.2C706.531 114.2 709.676 115.313 711.805 117.001C713.908 118.668 715.26 121.083 715.669 124.191L721.618 123.409ZM702.244 108.2C697.908 108.2 694.114 109.057 691.319 111.02C688.384 113.082 686.844 116.167 686.844 119.8H692.844C692.844 118.033 693.503 116.818 694.768 115.93C696.173 114.943 698.58 114.2 702.244 114.2V108.2ZM686.844 119.8C686.844 123.027 688.272 125.562 690.469 127.477C692.556 129.295 695.349 130.578 698.305 131.606C701.295 132.645 704.736 133.516 708.278 134.377C711.865 135.248 715.579 136.113 719.305 137.163C726.79 139.271 733.87 142.01 739.102 146.514C744.193 150.897 747.706 157.095 747.844 166.643L753.843 166.557C753.681 155.305 749.419 147.478 743.017 141.967C736.755 136.577 728.623 133.554 720.932 131.387C717.071 130.3 713.207 129.399 709.694 128.546C706.137 127.682 702.958 126.871 700.276 125.938C697.56 124.994 695.63 124.016 694.411 122.953C693.303 121.988 692.844 121.023 692.844 119.8H686.844ZM777.167 115.8H780.167V112.8H777.167V115.8ZM763.567 115.8H760.567V118.8H763.567V115.8ZM763.567 87.4V84.4H760.567V87.4H763.567ZM777.167 87.4V90.4H780.167V87.4H777.167ZM777.167 60.2V57.2H774.167V60.2H777.167ZM811.367 60.2H814.367V57.2H811.367V60.2ZM811.367 87.4H808.367V90.4H811.367V87.4ZM833.767 87.4H836.767V84.4H833.767V87.4ZM833.767 115.8V118.8H836.767V115.8H833.767ZM811.367 115.8V112.8H808.367V115.8H811.367ZM833.967 170H836.967V167H833.967V170ZM833.967 199V202H836.967V199H833.967ZM780.167 160.2V115.8H774.167V160.2H780.167ZM777.167 112.8H763.567V118.8H777.167V112.8ZM766.567 115.8V87.4H760.567V115.8H766.567ZM763.567 90.4H777.167V84.4H763.567V90.4ZM780.167 87.4V60.2H774.167V87.4H780.167ZM777.167 63.2H811.367V57.2H777.167V63.2ZM808.367 60.2V87.4H814.367V60.2H808.367ZM811.367 90.4H833.767V84.4H811.367V90.4ZM830.767 87.4V115.8H836.767V87.4H830.767ZM833.767 112.8H811.367V118.8H833.767V112.8ZM808.367 115.8V160.6H814.367V115.8H808.367ZM808.367 160.6C808.367 164.238 809.127 167.618 811.681 169.978C814.171 172.28 817.723 173 821.767 173V167C818.211 167 816.563 166.32 815.753 165.572C815.007 164.882 814.367 163.562 814.367 160.6H808.367ZM821.767 173H833.967V167H821.767V173ZM830.967 170V199H836.967V170H830.967ZM833.967 196H816.567V202H833.967V196ZM816.567 196C805.317 196 796.316 193.613 790.142 188.216C784.046 182.888 780.167 174.146 780.167 160.2H774.167C774.167 175.254 778.388 185.912 786.193 192.734C793.919 199.487 804.618 202 816.567 202V196Z" fill="#EEFF30"/>
<path d="M9 10H109" stroke="black" stroke-width="20"/>
</svg>
