<svg width="1503" height="148" viewBox="0 0 1503 148" fill="none" xmlns="http://www.w3.org/2000/svg">
<path d="M1290.7 147.8C1290.2 147.5 1289.8 146.8 1289.3 146.8C1286.8 146.7 1284.3 146.9 1281.8 146.7C1275.1 146.4 1268.3 146.4 1261.6 145.6C1254.9 144.8 1248.3 144.2 1241.6 143.6C1235.5 143 1229.5 141.6 1223.4 140.7C1218.1 139.9 1212.7 139.5 1207.4 138.6C1200.4 137.4 1193.4 136.2 1186.5 134.6C1177.4 132.5 1168.4 130 1159.4 127.7C1155.8 126.8 1152.3 125.7 1148.7 124.7C1136.6 121.5 1124.6 117.8 1112.5 114.4C1100.7 111.1 1088.9 108 1077.1 104.9C1065.9 101.9 1054.4 100 1043.1 97.6C1035.4 96 1027.7 94.2 1019.9 92.7C1015 91.8 1009.9 90.9 1004.9 90.8C1003 90.7 1002.3 88.4 1000.2 89.3C998.6 90 996.8 89.5 995 88.9C992.4 88 989.6 88 986.8 87.7C983.1 87.3 979.1 87.7 975.6 86.5C971.6 85.1 967.3 86.8 963.6 84.7C963.5 84.6 963.3 84.7 963.1 84.7C958.2 84.4 953.3 84.1 948.4 83.7C945.5 83.5 942.6 83 939.7 82.7C936.9 82.5 934.1 83.2 931.5 81.7C931.1 81.5 930.5 81.7 930 81.7C915.8 81.2 901.5 80.3 887.3 80.6C883.9 80.7 880.4 79.4 877.1 79.8C864.5 81.4 851.9 80.2 839.4 80.8C836.9 80.9 834.5 80.9 832 81.1C829.4 81.2 826.8 81.4 824.2 81.8C816.8 82.9 809.2 83.1 801.8 84C798.2 84.5 794.4 84.3 790.8 85.6C788.2 86.5 785 86.2 782.1 86.6C775.5 87.6 769 88.7 762.4 89.7C756 90.7 749.4 91 743 91.8C740.1 92.2 737.3 92.8 734.5 93.5C731.6 94.2 728.7 93.5 725.8 94.5C722.7 95.6 719 95.3 715.6 95.7C713.7 95.9 711.8 96.4 709.9 96.7C708 96.9 706.1 96.9 704.1 97.5C701.2 98.4 698 97.8 694.9 98.6C691.1 99.5 687.1 99.3 683.2 99.8C681.3 100 679.4 100.4 677.5 100.8C675.8 101.1 674 101.4 672.3 101.7C671.6 101.8 671 101.8 670.3 101.8C665.1 101.8 660 102.9 654.8 103.7C650.3 104.4 645.7 104.5 641.1 104.8C635.7 105.1 630.4 105.7 625.1 106.7C621.9 107.3 618.6 107 615.4 107.6C610.6 108.6 605.5 107.9 600.7 108.9C595.9 109.9 590.9 108.8 586.2 110.7C585.9 110.8 585.5 110.7 585.2 110.7C579.6 111 574 110.9 568.5 111.8C563.3 112.7 558 111.8 553 113.6C552.7 113.7 552.3 113.6 552 113.6C545.3 113.9 538.5 114.2 531.8 114.6C528.7 114.8 525.6 115.3 522.6 115.6C519.7 115.9 516.6 115 513.9 116.6C513.6 116.7 513.2 116.6 512.9 116.6C504.7 116.9 496.4 116.9 488.2 117.7C482.1 118.3 475.9 117.8 470 118.8C464.4 119.7 458.8 119 453.2 119.7C444.5 120.8 435.7 119.9 427 120.8C409.4 122.5 391.8 121.2 374.3 121.6C364.6 121.8 355 121.8 345.3 121.6C334.4 121.4 323.4 121.4 312.6 120.4C307.7 120 302.7 120 297.9 119.5C290.3 118.7 282.6 118 274.9 117.4C268.7 116.9 262.6 116.2 256.4 115.4C250.3 114.6 244.1 114.4 238.1 112.7C234.9 111.8 231.3 112 227.9 111.5C223.1 110.8 218.3 110.1 213.5 109.2C209.1 108.4 204.7 107.4 200.2 106.5C193.3 105.1 186.3 103.8 179.4 102.1C172 100.4 164.7 98.4 157.4 96.5C145.1 93.2 132.9 89.8 121.1 85C111.2 81 101.2 77.5 91.5 73.1C83 69.7 75.4001 65 67.4001 61C60.1001 57.3 53.4 52.9 46.7 48.2C40.8 44.1 34.8 40.2 29.6 35.1C26.5 32.1 23.2 29.4 20.1 26.5C12.9 19.7 6.10005 12.5 0.800049 3.60004C2.60005 2.00004 4.10005 -0.29996 7.20005 1.50004C7.60005 1.70004 8.10005 1.80004 8.60005 1.80004C15.7 2.10004 22.7001 2.50004 29.8001 2.80004C36.2001 3.10004 42.6 3.60004 49 4.00004C53.1 4.30004 57.2 4.10004 61.2 4.80004C66.8 5.80004 72.5001 5.00004 77.9001 5.90004C82.2001 6.60004 86.5001 6.10004 90.6001 6.80004C96.0001 7.80004 101.5 7.00004 106.8 7.90004C111.4 8.70004 116.2 7.80004 120.5 8.90004C126.7 10.5 133 8.50004 139 10.7C139.3 10.8 139.7 10.7 140 10.7C147.7 11 155.5 10.9 163.2 11.8C168.8 12.5 174.4 12 179.9 12.9C184 13.6 188.1 13.1 192.1 13.8C197.7 14.8 203.3 14 208.8 14.9C212.9 15.6 217 15.1 221 15.8C226.6 16.8 232.3 16 237.7 16.9C242 17.6 246.3 17.1 250.4 17.8C255.8 18.8 261.3 18 266.6 18.9C271.2 19.7 276 18.8 280.3 19.9C286.5 21.4 292.8 19.5 298.8 21.7C299.1 21.8 299.5 21.7 299.8 21.7C307.5 22 315.3 21.9 323 22.8C328.6 23.5 334.2 23 339.7 23.9C343.8 24.6 347.9 24.1 351.9 24.8C357.5 25.8 363.2 25 368.6 25.9C372.9 26.6 377.2 26.1 381.3 26.8C386.7 27.8 392.2 27 397.5 27.9C401.8 28.6 406.1 28.1 410.2 28.8C415.6 29.8 421.1 29 426.4 29.9C431 30.7 435.8 29.8 440.1 30.9C446.3 32.4 452.6 30.5 458.6 32.7C458.9 32.8 459.3 32.7 459.6 32.7C467.3 33 475.1 32.9 482.8 33.8C488.4 34.5 494 34 499.5 34.9C503.6 35.6 507.7 35.1 511.7 35.8C517.3 36.8 523 36 528.4 36.9C532.7 37.6 537 37.1 541.1 37.8C546.5 38.8 552 38 557.3 38.9C561.6 39.6 565.9 39.1 570 39.8C575.4 40.8 580.9 40 586.2 40.9C590.8 41.7 595.6 40.8 599.9 41.9C606.1 43.4 612.4 41.5 618.4 43.7C618.7 43.8 619.1 43.7 619.4 43.7C627.1 44 634.9 43.9 642.6 44.8C648.2 45.5 653.8 45 659.3 45.9C663.4 46.6 667.5 46.1 671.5 46.8C677.1 47.8 682.8 47 688.2 47.9C692.5 48.6 696.8 48.1 700.9 48.8C706.3 49.8 711.8 49 717.1 49.9C721.4 50.6 725.7 50.1 729.8 50.8C735.2 51.8 740.7 51 746 51.9C750.6 52.7 755.3 51.8 759.7 52.9C765.9 54.4 772.2 52.5 778.2 54.7C778.5 54.8 778.9 54.7 779.2 54.7C786.9 55 794.7 54.9 802.4 55.8C808 56.5 813.6 56 819.1 56.9C823.2 57.6 827.3 57.1 831.3 57.8C836.9 58.8 842.6 58 848 58.9C852.3 59.6 856.6 59.1 860.7 59.8C866.1 60.8 871.6 60 876.9 60.9C881.2 61.6 885.5 61.1 889.6 61.8C895 62.8 900.5 62 905.8 62.9C910.4 63.7 915.1 62.8 919.5 63.9C925.7 65.4 932 63.5 938 65.7C938.3 65.8 938.7 65.7 939 65.7C946.7 66 954.5 65.9 962.2 66.8C967.8 67.5 973.4 67 978.9 67.9C983 68.6 987.1 68.1 991.1 68.8C996.7 69.8 1002.4 69 1007.8 69.9C1012.1 70.6 1016.4 70.1 1020.5 70.8C1025.9 71.8 1031.4 71 1036.7 71.9C1041 72.6 1045.3 72.1 1049.4 72.8C1054.8 73.8 1060.3 73 1065.6 73.9C1070.2 74.7 1075 73.8 1079.3 74.9C1085.5 76.4 1091.8 74.5 1097.8 76.7C1098.1 76.8 1098.5 76.7 1098.8 76.7C1106.5 77 1114.3 76.9 1122 77.8C1127.6 78.5 1133.2 78 1138.7 78.9C1142.8 79.6 1146.9 79.1 1150.9 79.8C1156.5 80.8 1162.2 80 1167.6 80.9C1171.9 81.6 1176.2 81.1 1180.3 81.8C1185.7 82.8 1191.2 82 1196.5 82.9C1200.8 83.6 1205.1 83.1 1209.2 83.8C1214.6 84.8 1220.1 84 1225.4 84.9C1230 85.7 1234.8 84.8 1239.1 85.9C1245.3 87.4 1251.6 85.5 1257.6 87.7C1257.9 87.8 1258.3 87.7 1258.6 87.7C1266.3 88 1274.1 87.9 1281.8 88.8C1287.4 89.5 1293 89 1298.5 89.9C1302.6 90.6 1306.7 90.1 1310.7 90.8C1316.3 91.8 1322 91 1327.4 91.9C1331.7 92.6 1336 92.1 1340.1 92.8C1345.5 93.8 1351 93 1356.3 93.9C1360.6 94.6 1364.9 94.1 1369 94.8C1374.4 95.8 1379.9 95 1385.2 95.9C1389.8 96.7 1394.6 95.8 1398.9 96.9C1405.1 98.4 1411.4 96.5 1417.4 98.7C1417.7 98.8 1418.1 98.7 1418.4 98.7C1426.1 99 1433.9 98.9 1441.6 99.8C1447.2 100.5 1452.8 100 1458.3 100.9C1462.4 101.6 1466.5 101.1 1470.5 101.8C1476.1 102.8 1481.7 102.2 1487.2 102.9C1490.5 103.3 1493.7 103.8 1496.9 103.7C1499.4 103.6 1500.9 104.7 1502.1 107.1C1500.9 107.9 1499.8 108.8 1498.6 109.5C1490.5 114.6 1482.2 119.3 1473.4 123.1C1464.6 126.9 1455.7 130 1446.6 132.8C1438.9 135.2 1431.2 137.3 1423.3 138.9C1417.1 140.1 1410.9 141 1404.6 141.9C1399.3 142.6 1394 143.3 1388.6 143.9C1381.9 144.7 1375.3 145.2 1368.6 146C1362.1 146.8 1355.8 146.6 1349.3 146.8C1348.8 146.8 1348.3 147.4 1347.9 147.8C1330 147.8 1310.4 147.8 1290.7 147.8Z" fill="url(#paint0_linear_166_4953)"/>
<defs>
<linearGradient id="paint0_linear_166_4953" x1="752.526" y1="51.3371" x2="747.33" y2="155.994" gradientUnits="userSpaceOnUse">
<stop offset="0.0655724" stop-color="#F0F0F0"/>
<stop offset="0.908" stop-color="#EEFF30"/>
</linearGradient>
</defs>
</svg>
