<svg width="1506" height="101" viewBox="0 0 1506 101" fill="none" xmlns="http://www.w3.org/2000/svg">
<path d="M1297.47 59.2154C1296.95 58.9509 1296.5 58.2805 1296 58.3153C1293.5 58.3897 1291.02 58.7634 1288.52 58.738C1281.81 58.9055 1275.03 59.3792 1268.29 59.0479C1261.55 58.7165 1254.92 58.5778 1248.2 58.4459C1242.07 58.2723 1235.99 57.2937 1229.84 56.8208C1224.5 56.3919 1219.08 56.3691 1213.73 55.8405C1206.67 55.131 1199.6 54.4216 1192.6 53.3061C1183.38 51.8451 1174.23 49.9781 1165.09 48.3107C1161.44 47.6636 1157.87 46.8101 1154.21 46.0633C1141.91 43.714 1129.68 40.8589 1117.38 38.31C1105.38 35.8401 1093.39 33.5696 1081.4 31.2991C1070.02 29.0866 1058.41 27.9923 1046.97 26.3853C1039.18 25.3256 1031.38 24.0663 1023.49 23.1133C1018.54 22.5569 1013.39 22.0143 1008.39 22.2629C1006.49 22.2955 1005.63 20.0498 1003.6 21.0939C1002.05 21.9037 1000.22 21.5303 998.386 21.0571C995.729 20.3404 992.936 20.5355 990.122 20.4313C986.403 20.29 982.441 20.9676 978.866 20.0144C974.778 18.8964 970.607 20.8918 966.769 19.0547C966.663 18.9619 966.47 19.0756 966.271 19.0895C961.362 19.1316 956.453 19.1736 951.537 19.1159C948.63 19.1185 945.702 18.8217 942.788 18.7244C939.981 18.72 937.237 19.6133 934.538 18.2981C934.125 18.1264 933.541 18.3677 933.042 18.4026C918.842 18.893 904.514 18.9913 890.369 20.2797C886.984 20.6164 883.402 19.5633 880.138 20.1922C867.68 22.6661 855.027 22.3467 842.6 23.816C840.113 24.0899 837.718 24.2571 835.238 24.6308C832.652 24.9116 830.072 25.2923 827.506 25.8724C820.201 27.4852 812.633 28.2142 805.314 29.6275C801.757 30.377 797.953 30.4422 794.452 31.9899C791.921 33.0688 788.708 32.9924 785.843 33.5935C779.328 35.0508 772.921 36.6009 766.407 38.0583C760.092 39.5017 753.529 40.2607 747.2 41.5046C744.335 42.1056 741.583 42.8992 738.839 43.7926C735.995 44.6929 733.053 44.1966 730.23 45.3962C727.214 46.7095 723.502 46.6679 720.138 47.3038C718.257 47.6357 716.396 48.2668 714.522 48.6984C712.64 49.0303 710.745 49.1627 708.791 49.9005C705.961 51.0004 702.727 50.6247 699.691 51.6387C695.962 52.8013 691.958 52.8804 688.103 53.6509C686.221 53.9827 684.354 54.5141 682.486 55.0455C680.811 55.4632 679.036 55.8878 677.361 56.3055C676.67 56.4541 676.071 56.4959 675.373 56.5446C670.186 56.9069 665.175 58.3595 660.043 59.5197C655.603 60.5315 651.021 60.9517 646.453 61.5714C641.087 62.2469 635.842 63.2146 630.624 64.5814C627.474 65.4028 624.161 65.3335 621.011 66.1549C616.292 67.4869 611.156 67.1438 606.437 68.4758C601.718 69.8077 596.654 69.0587 592.097 71.2815C591.805 71.4021 591.399 71.3302 591.1 71.3511C585.534 72.0405 579.941 72.3308 574.517 73.6118C569.392 74.8718 564.043 74.3432 559.18 76.4872C558.888 76.6078 558.482 76.5359 558.183 76.5568C551.52 77.3228 544.757 78.0958 538.101 78.9615C535.023 79.377 531.965 80.0917 528.993 80.6C526.121 81.1013 522.966 80.4194 520.384 82.2036C520.092 82.3243 519.686 82.2524 519.387 82.2733C511.227 83.1438 502.948 83.7219 494.823 85.0912C488.78 86.1147 482.56 86.0478 476.744 87.4564C471.22 88.7443 465.585 88.4361 460.047 89.5245C451.445 91.2279 442.604 90.9431 433.988 92.4469C416.549 95.3688 398.901 95.298 381.471 96.9161C371.809 97.7913 362.232 98.4601 352.542 98.9363C341.654 99.4961 330.681 100.262 319.838 100.017C314.922 99.9594 309.934 100.308 305.111 100.143C297.474 99.8746 289.743 99.7127 282.02 99.6506C275.801 99.5837 269.667 99.3103 263.426 98.9442C257.285 98.571 251.086 98.8034 244.982 97.5255C241.727 96.8506 238.15 97.3009 234.724 97.039C229.886 96.675 225.049 96.3111 220.198 95.7477C215.753 95.2561 211.294 94.5651 206.743 93.9807C199.762 93.0648 192.688 92.2556 185.687 91.0403C178.186 89.86 170.765 88.3733 163.35 86.9865C150.85 84.5513 138.443 82.0094 126.337 78.0431C116.182 74.7425 105.963 71.9476 95.9799 68.234C87.2637 65.4343 79.3548 61.2752 71.0956 57.8422C63.5556 54.6597 56.5653 50.7371 49.5542 46.5153C43.3829 42.8362 37.1258 39.3636 31.5832 34.6383C28.2817 31.8615 24.8017 29.398 21.5072 26.7209C13.851 20.439 6.56595 13.7302 0.658844 5.22103C2.34301 3.49952 3.67915 1.10062 6.89701 2.6803C7.30997 2.85195 7.81572 2.91688 8.31451 2.88205C15.4182 2.68673 22.429 2.59813 29.5327 2.40281C35.938 2.25625 42.3573 2.30921 48.7696 2.26241C52.8806 2.27607 56.9567 1.79095 60.9957 2.21061C66.6518 2.81808 72.2822 1.62295 77.7318 2.1446C82.0701 2.54336 86.3248 1.74503 90.4636 2.15772C95.9202 2.77912 101.351 1.59794 106.701 2.12655C111.345 2.60417 116.071 1.37198 120.437 2.16977C126.734 3.33398 132.879 0.899979 139.018 2.67667C139.324 2.75553 139.716 2.62791 140.015 2.60701C147.717 2.36989 155.492 1.72678 163.236 2.08821C168.871 2.39641 174.422 1.50752 179.972 2.0222C184.11 2.43489 188.166 1.6505 192.205 2.07015C197.861 2.67762 203.391 1.48947 208.941 2.00415C213.08 2.41684 217.135 1.63244 221.174 2.0521C226.83 2.65957 232.46 1.46445 237.91 1.9861C242.248 2.38486 246.503 1.58653 250.642 1.99922C256.098 2.62062 261.529 1.43943 266.879 1.96804C271.524 2.44566 276.249 1.21348 280.615 2.01126C286.905 3.07572 293.057 0.741474 299.196 2.51817C299.502 2.59703 299.894 2.4694 300.193 2.44851C307.896 2.21139 315.67 1.56828 323.414 1.9297C329.049 2.2379 334.6 1.34902 340.15 1.8637C344.289 2.27639 348.344 1.49199 352.383 1.91165C358.039 2.51912 363.669 1.324 369.119 1.84565C373.457 2.24441 377.712 1.44608 381.851 1.85877C387.307 2.48017 392.738 1.29898 398.088 1.82759C402.426 2.22635 406.681 1.42802 410.82 1.84071C416.276 2.46212 421.707 1.28093 427.057 1.80954C431.702 2.28716 436.427 1.05497 440.793 1.85276C447.083 2.91722 453.235 0.582969 459.374 2.35966C459.68 2.43852 460.072 2.3109 460.371 2.29C468.074 2.05288 475.848 1.40977 483.592 1.7712C489.227 2.0794 494.778 1.19051 500.328 1.70519C504.467 2.11788 508.522 1.33349 512.561 1.75315C518.217 2.36062 523.847 1.16549 529.297 1.68714C533.635 2.0859 537.89 1.28757 542.029 1.70027C547.485 2.32167 552.916 1.14047 558.266 1.66909C562.604 2.06785 566.859 1.26952 570.998 1.68221C576.454 2.30361 581.885 1.12242 587.235 1.65103C591.88 2.12865 596.605 0.896464 600.972 1.69425C607.261 2.75871 613.413 0.424458 619.552 2.20115C619.858 2.28001 620.25 2.15239 620.55 2.13149C628.252 1.89437 636.026 1.25127 643.77 1.6127C649.405 1.9209 654.956 1.03201 660.506 1.54669C664.645 1.95938 668.7 1.17499 672.739 1.59464C678.395 2.20212 684.025 1.00699 689.475 1.52863C693.813 1.92739 698.068 1.12906 702.207 1.54176C707.663 2.16316 713.094 0.98197 718.444 1.51058C722.782 1.90934 727.037 1.11101 731.176 1.52371C736.632 2.14511 742.063 0.963915 747.413 1.49253C752.058 1.97015 756.684 0.74493 761.15 1.53575C767.439 2.60021 773.591 0.265955 779.73 2.04265C780.036 2.12151 780.428 1.99388 780.728 1.97299C788.43 1.73587 796.204 1.09276 803.948 1.45419C809.583 1.76239 815.135 0.873505 820.684 1.38819C824.823 1.80088 828.878 1.01648 832.917 1.43614C838.573 2.04361 844.203 0.848486 849.653 1.37013C853.991 1.76889 858.246 0.970562 862.385 1.38325C867.841 2.00466 873.272 0.823462 878.622 1.35208C882.96 1.75084 887.215 0.952511 891.354 1.3652C896.811 1.98661 902.241 0.805412 907.591 1.33403C912.236 1.81164 916.862 0.586427 921.328 1.37724C927.617 2.4417 933.769 0.107451 939.908 1.88414C940.214 1.963 940.606 1.83538 940.906 1.81448C948.608 1.57737 956.382 0.93426 964.126 1.29569C969.761 1.60389 975.313 0.714998 980.862 1.22968C985.001 1.64237 989.056 0.857983 993.095 1.27764C998.751 1.88511 1004.38 0.689978 1009.83 1.21162C1014.17 1.61038 1018.42 0.812062 1022.56 1.22475C1028.02 1.84616 1033.45 0.664972 1038.8 1.19358C1043.14 1.59233 1047.39 0.794012 1051.53 1.2067C1056.99 1.8281 1062.42 0.646917 1067.77 1.17553C1072.41 1.65315 1077.14 0.420959 1081.51 1.21874C1087.8 2.2832 1093.95 -0.051048 1100.09 1.72564C1100.39 1.80449 1100.78 1.67688 1101.08 1.65598C1108.79 1.41887 1116.56 0.775757 1124.3 1.13719C1129.94 1.44539 1135.49 0.556503 1141.04 1.07118C1145.18 1.48387 1149.23 0.69948 1153.27 1.11913C1158.93 1.72661 1164.56 0.531484 1170.01 1.05313C1174.35 1.45188 1178.6 0.653559 1182.74 1.06625C1188.2 1.68765 1193.63 0.506464 1198.98 1.03507C1203.32 1.43383 1207.57 0.635513 1211.71 1.0482C1217.17 1.6696 1222.6 0.488409 1227.95 1.01702C1232.59 1.49464 1237.32 0.26246 1241.68 1.06024C1247.97 2.1247 1254.13 -0.209547 1260.26 1.56714C1260.57 1.646 1260.96 1.51838 1261.26 1.49748C1268.96 1.26037 1276.74 0.61725 1284.48 0.978681C1290.12 1.28688 1295.67 0.397995 1301.22 0.912677C1305.36 1.32537 1309.41 0.540981 1313.45 0.960634C1319.11 1.56811 1324.74 0.372976 1330.19 0.894622C1334.53 1.29337 1338.78 0.49506 1342.92 0.907749C1348.38 1.52915 1353.81 0.347957 1359.16 0.876567C1363.49 1.27532 1367.75 0.477005 1371.89 0.889694C1377.34 1.5111 1382.78 0.32991 1388.13 0.85852C1392.77 1.33614 1397.5 0.103952 1401.86 0.901734C1408.15 1.9662 1414.3 -0.368054 1420.44 1.40863C1420.75 1.48749 1421.14 1.35987 1421.44 1.33897C1429.14 1.10186 1436.92 0.458751 1444.66 0.820182C1450.3 1.12838 1455.85 0.23948 1461.4 0.754161C1465.53 1.16685 1469.59 0.382473 1473.63 0.802127C1479.29 1.4096 1484.83 0.420953 1490.37 0.736115C1493.69 0.905261 1496.91 1.18113 1500.1 0.858461C1502.58 0.584553 1504.16 1.5774 1505.52 3.88798C1504.38 4.76963 1503.35 5.74407 1502.2 6.52595C1494.47 12.1778 1486.52 17.4446 1478.01 21.8484C1469.49 26.2522 1460.83 29.9646 1451.95 33.3917C1444.43 36.3223 1436.9 38.9535 1429.13 41.1C1423.03 42.729 1416.9 44.0587 1410.68 45.3954C1405.44 46.4629 1400.21 47.5304 1394.86 48.5051C1388.23 49.7699 1381.68 50.7284 1375.06 51.9932C1368.63 53.244 1362.33 53.4834 1355.86 54.1357C1355.36 54.1705 1354.9 54.8039 1354.53 55.2308C1336.67 56.4777 1317.12 57.8431 1297.47 59.2154Z" fill="url(#paint0_linear_166_4953)"/>
<defs>
<linearGradient id="paint0_linear_166_4953" x1="753.885" y1="0.476369" x2="755.992" y2="105.241" gradientUnits="userSpaceOnUse">
<stop offset="0.0655724" stop-color="#F0F0F0"/>
<stop offset="0.908" stop-color="#EEFF30"/>
</linearGradient>
</defs>
</svg>
