<svg width="30" height="30" viewBox="0 0 30 30" fill="none" xmlns="http://www.w3.org/2000/svg">
<path d="M20.5984 15C20.5984 14.2279 19.9705 13.6 19.1984 13.6H18.4984V11.5C18.4984 9.5701 16.9283 8 14.9984 8C13.0685 8 11.4984 9.5701 11.4984 11.5V13.6H10.7984C10.0263 13.6 9.39844 14.2279 9.39844 15V20.6C9.39844 21.3721 10.0263 22 10.7984 22H19.1984C19.9705 22 20.5984 21.3721 20.5984 20.6V15ZM12.8984 11.5C12.8984 10.3422 13.8406 9.4 14.9984 9.4C16.1562 9.4 17.0984 10.3422 17.0984 11.5V13.6H12.8984V11.5Z" fill="white"/>
</svg>
