<svg width="207" height="67" viewBox="0 0 207 67" fill="none" xmlns="http://www.w3.org/2000/svg">
<path d="M0 0H30V7H0V0Z" fill="black"/>
<path d="M26.5 42.6C26.5 48.5 21.9 53.4 13.7 53.4C6.15 53.4 0.25 49.65 0 42.55H9.1C9.35 45.25 11.05 46.55 13.45 46.55C15.95 46.55 17.55 45.3 17.55 43.25C17.55 36.75 1.2666e-07 40.25 0.1 27.8C0.1 21.15 5.55 17.45 12.9 17.45C20.55 17.45 25.7 21.25 26.05 27.95H16.8C16.65 25.7 15.05 24.35 12.75 24.3C10.7 24.25 9.15 25.3 9.15 27.5C9.15 33.6 26.5 30.85 26.5 42.6Z" fill="#1D1D1D"/>
<path d="M31.7617 53.05V25.15H40.3117V53.05H31.7617ZM36.0617 22.25C33.0117 22.25 30.9617 20.2 30.9617 17.65C30.9617 15.05 33.0117 13 36.0617 13C39.0617 13 41.1117 15.05 41.1117 17.65C41.1117 20.2 39.0617 22.25 36.0617 22.25Z" fill="#1D1D1D"/>
<path d="M84.9578 53.05V37.9C84.9578 34.25 82.8578 32.25 79.6078 32.25C76.3578 32.25 74.2578 34.25 74.2578 37.9V53.05H65.7578V37.9C65.7578 34.25 63.6578 32.25 60.4078 32.25C57.1578 32.25 55.0578 34.25 55.0578 37.9V53.05H46.5078V25.15H55.0578V28.65C56.7078 26.4 59.5578 24.85 63.2078 24.85C67.4078 24.85 70.8078 26.7 72.7078 30.05C74.5578 27.1 78.0578 24.85 82.1078 24.85C89.0078 24.85 93.4578 29.25 93.4578 36.75V53.05H84.9578Z" fill="#1D1D1D"/>
<path d="M107.988 29.1C109.538 26.65 112.488 24.75 116.588 24.75C123.438 24.75 128.887 30.25 128.887 39.05C128.887 47.85 123.438 53.45 116.588 53.45C112.488 53.45 109.538 51.5 107.988 49.15V66.35H99.4375V25.15H107.988V29.1ZM120.188 39.05C120.188 34.6 117.287 32.2 114.037 32.2C110.837 32.2 107.938 34.65 107.938 39.1C107.938 43.55 110.837 46 114.037 46C117.287 46 120.188 43.5 120.188 39.05Z" fill="#1D1D1D"/>
<path d="M133.373 53.05V16.05H141.923V53.05H133.373Z" fill="#1D1D1D"/>
<path d="M148.119 53.05V25.15H156.669V53.05H148.119ZM152.419 22.25C149.369 22.25 147.319 20.2 147.319 17.65C147.319 15.05 149.369 13 152.419 13C155.419 13 157.469 15.05 157.469 17.65C157.469 20.2 155.419 22.25 152.419 22.25Z" fill="#1D1D1D"/>
<path d="M185.515 44.95C185.515 49.8 181.215 53.45 174.215 53.45C166.765 53.45 161.765 49.3 161.365 43.9H169.815C170.015 45.85 171.765 47.15 174.115 47.15C176.315 47.15 177.465 46.15 177.465 44.9C177.465 40.4 162.265 43.65 162.265 33.4C162.265 28.65 166.315 24.75 173.615 24.75C180.815 24.75 184.815 28.75 185.365 34.25H177.465C177.215 32.35 175.765 31.1 173.365 31.1C171.365 31.1 170.265 31.9 170.265 33.25C170.265 37.7 185.365 34.55 185.515 44.95Z" fill="#1D1D1D"/>
<path d="M192.096 43.35V32.25H188.696V25.15H192.096V18.35H200.646V25.15H206.246V32.25H200.646V43.45C200.646 45.1 201.346 45.8 203.246 45.8H206.296V53.05H201.946C196.146 53.05 192.096 50.6 192.096 43.35Z" fill="#1D1D1D"/>
</svg>
