<svg width="247" height="107" viewBox="0 0 247 107" fill="none" xmlns="http://www.w3.org/2000/svg">
<rect y="0.349976" width="246.296" height="106.35" rx="10" fill="black"/>
<path d="M20 20.35H50V27.35H20V20.35Z" fill="#EEFF30"/>
<path d="M46.5 62.95C46.5 68.85 41.9 73.75 33.7 73.75C26.15 73.75 20.25 70 20 62.9H29.1C29.35 65.6 31.05 66.9 33.45 66.9C35.95 66.9 37.55 65.65 37.55 63.6C37.55 57.1 20 60.6 20.1 48.15C20.1 41.5 25.55 37.8 32.9 37.8C40.55 37.8 45.7 41.6 46.05 48.3H36.8C36.65 46.05 35.05 44.7 32.75 44.65C30.7 44.6 29.15 45.65 29.15 47.85C29.15 53.95 46.5 51.2 46.5 62.95Z" fill="#EEFF30"/>
<path d="M51.7617 73.4V45.5H60.3117V73.4H51.7617ZM56.0617 42.6C53.0117 42.6 50.9617 40.55 50.9617 38C50.9617 35.4 53.0117 33.35 56.0617 33.35C59.0617 33.35 61.1117 35.4 61.1117 38C61.1117 40.55 59.0617 42.6 56.0617 42.6Z" fill="#EEFF30"/>
<path d="M104.958 73.4V58.25C104.958 54.6 102.858 52.6 99.6078 52.6C96.3578 52.6 94.2578 54.6 94.2578 58.25V73.4H85.7578V58.25C85.7578 54.6 83.6578 52.6 80.4078 52.6C77.1578 52.6 75.0578 54.6 75.0578 58.25V73.4H66.5078V45.5H75.0578V49C76.7078 46.75 79.5578 45.2 83.2078 45.2C87.4078 45.2 90.8078 47.05 92.7078 50.4C94.5578 47.45 98.0578 45.2 102.108 45.2C109.008 45.2 113.458 49.6 113.458 57.1V73.4H104.958Z" fill="#EEFF30"/>
<path d="M127.988 49.45C129.538 47 132.488 45.1 136.588 45.1C143.438 45.1 148.887 50.6 148.887 59.4C148.887 68.2 143.438 73.8 136.588 73.8C132.488 73.8 129.538 71.85 127.988 69.5V86.7H119.438V45.5H127.988V49.45ZM140.188 59.4C140.188 54.95 137.287 52.55 134.037 52.55C130.838 52.55 127.938 55 127.938 59.45C127.938 63.9 130.838 66.35 134.037 66.35C137.287 66.35 140.188 63.85 140.188 59.4Z" fill="#EEFF30"/>
<path d="M153.373 73.4V36.4H161.923V73.4H153.373Z" fill="#EEFF30"/>
<path d="M168.119 73.4V45.5H176.669V73.4H168.119ZM172.419 42.6C169.369 42.6 167.319 40.55 167.319 38C167.319 35.4 169.369 33.35 172.419 33.35C175.419 33.35 177.469 35.4 177.469 38C177.469 40.55 175.419 42.6 172.419 42.6Z" fill="#EEFF30"/>
<path d="M205.515 65.3C205.515 70.15 201.215 73.8 194.215 73.8C186.765 73.8 181.765 69.65 181.365 64.25H189.815C190.015 66.2 191.765 67.5 194.115 67.5C196.315 67.5 197.465 66.5 197.465 65.25C197.465 60.75 182.265 64 182.265 53.75C182.265 49 186.315 45.1 193.615 45.1C200.815 45.1 204.815 49.1 205.365 54.6H197.465C197.215 52.7 195.765 51.45 193.365 51.45C191.365 51.45 190.265 52.25 190.265 53.6C190.265 58.05 205.365 54.9 205.515 65.3Z" fill="#EEFF30"/>
<path d="M212.096 63.7V52.6H208.696V45.5H212.096V38.7H220.646V45.5H226.246V52.6H220.646V63.8C220.646 65.45 221.346 66.15 223.246 66.15H226.296V73.4H221.946C216.146 73.4 212.096 70.95 212.096 63.7Z" fill="#EEFF30"/>
</svg>
