<svg width="247" height="107" viewBox="0 0 247 107" fill="none" xmlns="http://www.w3.org/2000/svg">
<rect width="246.296" height="106.35" rx="10" fill="white"/>
<path d="M20 20H50V27H20V20Z" fill="black"/>
<path d="M46.5 62.6C46.5 68.5 41.9 73.4 33.7 73.4C26.15 73.4 20.25 69.65 20 62.55H29.1C29.35 65.25 31.05 66.55 33.45 66.55C35.95 66.55 37.55 65.3 37.55 63.25C37.55 56.75 20 60.25 20.1 47.8C20.1 41.15 25.55 37.45 32.9 37.45C40.55 37.45 45.7 41.25 46.05 47.95H36.8C36.65 45.7 35.05 44.35 32.75 44.3C30.7 44.25 29.15 45.3 29.15 47.5C29.15 53.6 46.5 50.85 46.5 62.6Z" fill="#1D1D1D"/>
<path d="M51.7617 73.05V45.15H60.3117V73.05H51.7617ZM56.0617 42.25C53.0117 42.25 50.9617 40.2 50.9617 37.65C50.9617 35.05 53.0117 33 56.0617 33C59.0617 33 61.1117 35.05 61.1117 37.65C61.1117 40.2 59.0617 42.25 56.0617 42.25Z" fill="#1D1D1D"/>
<path d="M104.958 73.05V57.9C104.958 54.25 102.858 52.25 99.6078 52.25C96.3578 52.25 94.2578 54.25 94.2578 57.9V73.05H85.7578V57.9C85.7578 54.25 83.6578 52.25 80.4078 52.25C77.1578 52.25 75.0578 54.25 75.0578 57.9V73.05H66.5078V45.15H75.0578V48.65C76.7078 46.4 79.5578 44.85 83.2078 44.85C87.4078 44.85 90.8078 46.7 92.7078 50.05C94.5578 47.1 98.0578 44.85 102.108 44.85C109.008 44.85 113.458 49.25 113.458 56.75V73.05H104.958Z" fill="#1D1D1D"/>
<path d="M127.988 49.1C129.538 46.65 132.488 44.75 136.588 44.75C143.438 44.75 148.887 50.25 148.887 59.05C148.887 67.85 143.438 73.45 136.588 73.45C132.488 73.45 129.538 71.5 127.988 69.15V86.35H119.438V45.15H127.988V49.1ZM140.188 59.05C140.188 54.6 137.287 52.2 134.037 52.2C130.838 52.2 127.938 54.65 127.938 59.1C127.938 63.55 130.838 66 134.037 66C137.287 66 140.188 63.5 140.188 59.05Z" fill="#1D1D1D"/>
<path d="M153.373 73.05V36.05H161.923V73.05H153.373Z" fill="#1D1D1D"/>
<path d="M168.119 73.05V45.15H176.669V73.05H168.119ZM172.419 42.25C169.369 42.25 167.319 40.2 167.319 37.65C167.319 35.05 169.369 33 172.419 33C175.419 33 177.469 35.05 177.469 37.65C177.469 40.2 175.419 42.25 172.419 42.25Z" fill="#1D1D1D"/>
<path d="M205.515 64.95C205.515 69.8 201.215 73.45 194.215 73.45C186.765 73.45 181.765 69.3 181.365 63.9H189.815C190.015 65.85 191.765 67.15 194.115 67.15C196.315 67.15 197.465 66.15 197.465 64.9C197.465 60.4 182.265 63.65 182.265 53.4C182.265 48.65 186.315 44.75 193.615 44.75C200.815 44.75 204.815 48.75 205.365 54.25H197.465C197.215 52.35 195.765 51.1 193.365 51.1C191.365 51.1 190.265 51.9 190.265 53.25C190.265 57.7 205.365 54.55 205.515 64.95Z" fill="#1D1D1D"/>
<path d="M212.096 63.35V52.25H208.696V45.15H212.096V38.35H220.646V45.15H226.246V52.25H220.646V63.45C220.646 65.1 221.346 65.8 223.246 65.8H226.296V73.05H221.946C216.146 73.05 212.096 70.6 212.096 63.35Z" fill="#1D1D1D"/>
</svg>
