<svg width="107" height="107" viewBox="0 0 107 107" fill="none" xmlns="http://www.w3.org/2000/svg">
<rect x="0.296875" y="0.349976" width="106" height="106" rx="10" fill="black"/>
<path d="M38.2969 28.875H68.2969V35.875H38.2969V28.875Z" fill="#EEFF30"/>
<path d="M66.5469 67.025C66.5469 72.925 61.9469 77.825 53.7469 77.825C46.1969 77.825 40.2969 74.075 40.0469 66.975H49.1469C49.3969 69.675 51.0969 70.975 53.4969 70.975C55.9969 70.975 57.5969 69.725 57.5969 67.675C57.5969 61.175 40.0469 64.675 40.1469 52.225C40.1469 45.575 45.5969 41.875 52.9469 41.875C60.5969 41.875 65.7469 45.675 66.0969 52.375H56.8469C56.6969 50.125 55.0969 48.775 52.7969 48.725C50.7469 48.675 49.1969 49.725 49.1969 51.925C49.1969 58.025 66.5469 55.275 66.5469 67.025Z" fill="#EEFF30"/>
</svg>
