<svg width="107" height="106" viewBox="0 0 107 106" fill="none" xmlns="http://www.w3.org/2000/svg">
<rect x="0.296875" width="106" height="106" rx="10" fill="white"/>
<path d="M38.2969 28.525H68.2969V35.525H38.2969V28.525Z" fill="black"/>
<path d="M66.5469 66.675C66.5469 72.575 61.9469 77.475 53.7469 77.475C46.1969 77.475 40.2969 73.725 40.0469 66.625H49.1469C49.3969 69.325 51.0969 70.625 53.4969 70.625C55.9969 70.625 57.5969 69.375 57.5969 67.325C57.5969 60.825 40.0469 64.325 40.1469 51.875C40.1469 45.225 45.5969 41.525 52.9469 41.525C60.5969 41.525 65.7469 45.325 66.0969 52.025H56.8469C56.6969 49.775 55.0969 48.425 52.7969 48.375C50.7469 48.325 49.1969 49.375 49.1969 51.575C49.1969 57.675 66.5469 54.925 66.5469 66.675Z" fill="#1D1D1D"/>
</svg>
