<?xml version="1.0" encoding="utf-8"?>
<!-- Generator: Adobe Illustrator 25.0.1, SVG Export Plug-In . SVG Version: 6.00 Build 0)  -->
<svg version="1.1" id="Layer_1" xmlns="http://www.w3.org/2000/svg" xmlns:xlink="http://www.w3.org/1999/xlink" x="0px" y="0px"
	 viewBox="0 0 383 810.7" style="enable-background:new 0 0 383 810.7;" xml:space="preserve">
<style type="text/css">
	.st0{fill:#1D1D1B;}
</style>
<path class="st0" d="M383,191h-1.5V49.9c0-27.5-22.4-49.9-49.9-49.9H51.4C23.9,0,1.5,22.4,1.5,49.9v51.6H0V132h1.5v24.3H0v60.6h1.5
	v16.9H0v60.6h1.5v447.7c0,27.5,22.4,49.9,49.9,49.9h280.2c27.5,0,49.9-22.4,49.9-49.9V290h1.5V191z M214.5,27.5
	c0,2.1-1.7,3.8-3.8,3.8h-38.5c-2.1,0-3.8-1.7-3.8-3.8s1.7-3.8,3.8-3.8h38.5C212.8,23.8,214.5,25.4,214.5,27.5z M369.5,742.1
	c0,20.9-17,37.9-37.9,37.9H51.4c-20.9,0-37.9-17-37.9-37.9V49.9C13.5,29,30.5,12,51.4,12h63.4v13.3c0,10.9,8.8,19.7,19.7,19.7h114
	c10.9,0,19.7-8.8,19.7-19.7V12h63.4c20.9,0,37.9,17,37.9,37.9V742.1z"/>
</svg>
