<svg width="21" height="21" viewBox="0 0 21 21" fill="none" xmlns="http://www.w3.org/2000/svg">
<rect width="21" height="21" rx="10.5" fill="#0D0D0D"/>
<path d="M6.09383 7.75V6.71H8.17383V14H7.02383V7.75H6.09383ZM9.54992 10.26C9.54992 9.10667 9.74325 8.20667 10.1299 7.56C10.5233 6.90667 11.1966 6.58 12.1499 6.58C13.1033 6.58 13.7733 6.90667 14.1599 7.56C14.5533 8.20667 14.7499 9.10667 14.7499 10.26C14.7499 11.4267 14.5533 12.34 14.1599 13C13.7733 13.6533 13.1033 13.98 12.1499 13.98C11.1966 13.98 10.5233 13.6533 10.1299 13C9.74325 12.34 9.54992 11.4267 9.54992 10.26ZM13.6299 10.26C13.6299 9.72 13.5933 9.26333 13.5199 8.89C13.4533 8.51667 13.3133 8.21333 13.0999 7.98C12.8866 7.74 12.5699 7.62 12.1499 7.62C11.7299 7.62 11.4133 7.74 11.1999 7.98C10.9866 8.21333 10.8433 8.51667 10.7699 8.89C10.7033 9.26333 10.6699 9.72 10.6699 10.26C10.6699 10.82 10.7033 11.29 10.7699 11.67C10.8366 12.05 10.9766 12.3567 11.1899 12.59C11.4099 12.8233 11.7299 12.94 12.1499 12.94C12.5699 12.94 12.8866 12.8233 13.0999 12.59C13.3199 12.3567 13.4633 12.05 13.5299 11.67C13.5966 11.29 13.6299 10.82 13.6299 10.26Z" fill="#EEFF30"/>
</svg>
